<svg version="1.0" xmlns="http://www.w3.org/2000/svg" width="100%" height="100%" viewBox="130 180 950 850" preserveAspectRatio="xMidYMid meet" fill="#152638">
  <path d="M607.7 206.2c-2.5 46.9-3.6 63.8-5.2 83.3-.8 9.3-1.9 23.1-2.5 30.5-3.2 42.5-12.7 93.8-22.5 121.9-5.7 16.5-6.3 17.8-11.6 28.3-6.1 12-10.7 18.8-12.6 18.8-5 0-58.2-33.8-61.6-39.1-1.7-2.7-.2-4.5 9.5-11.8 20.7-15.5 40.9-25.1 67.2-32 10.9-2.9 12.7-4.3 10.8-8.6-1.2-2.6-1.4-2.7-7.5-2-9.9 1.2-32.3 8.8-47.2 16.2-11.7 5.8-27.5 16.1-37 24.2-3.2 2.8-6.3 5.1-6.7 5.1-1 0-15-11.4-28.3-23-6-5.3-15.7-13.7-21.5-18.7s-16.1-14.3-23-20.8c-13.3-12.5-21-18.9-19.5-16.5 1.5 2.5 17.5 20.8 27.6 31.4 9.6 10.2 44 49.8 49.4 56.9 2.8 3.8 2.8 3.8.9 6.2-26.4 32.7-38.3 58.5-44.9 97-.8 4.9-1.9 9.2-2.3 9.6-.6.6-10.2 2.1-39.7 6.4-26.5 3.9-92 8.5-92.7 6.5-.1-.5 0-6.9.5-14.2 3.6-62 26-122.4 64-173.3 21.4-28.5 52.4-57.6 82.1-77 15.5-10.1 24.6-15 45.6-24.8 8.6-3.9 8.3-3.8 20.9-8.6 10.7-4.1 12.4-5.7 10-9.9-1.8-3.3-3.2-3.3-12.4.3-3.8 1.5-7.9 3-9 3.3s-8.3 3.4-16 6.9c-41.8 19-76.9 44.5-107.8 78.1-34 37.1-58 78.4-72.4 124.7-3.7 11.9-5.6 18.9-9.8 37.6-1.7 7.8-4.2 28.4-5.3 45.2-.6 8.4-1.3 12.2-2.4 13.3-1.4 1.5-21.8 2.5-69.8 3.4-4 .1-5 .4-3.5 1 1.1.5 12.8 1.4 26 2 31.1 1.5 47.4 2.6 47.9 3.1.2.2 1.3 10 2.4 21.8 1.4 15.1 2.4 21.6 3.3 22.2 1.5 1 5.8.3 7.2-1 .4-.4.3-7.3-.2-15.2-.6-7.9-1.1-17.3-1.1-20.8v-6.4l15.3.6c8.3.3 18.6 1.1 22.7 1.6 4.1.6 13.9 1.5 21.8 2.1 20.3 1.5 57.7 6.4 69.3 9.2 3.8.9 4.9 2.6 4.9 8.1 0 4.6 1.7 6.7 5.3 6.7 4.8 0 6.1-1.3 5.4-4.9-1.3-6.3 1.1-7.4 10.1-4.7 2.6.7 8.5 2.4 13.2 3.7 26.1 7 61 23.4 61 28.6 0 3.8-23.4 41.5-34.5 55.5-2.8 3.6-5.3 5.8-6.5 5.8-4.9 0-23.7-29-32-49.3-4-9.7-5.4-10.9-9.6-8.7-2.8 1.6-3.7 3.5-2.5 5.8.5.9 1.9 4.2 3.1 7.2 6.2 15.7 15.7 31.8 27.1 46.2 3.8 4.9 6.9 9.3 6.9 9.8 0 1.5-37 44.4-60.4 70-10.8 11.8-19.6 21.9-19.6 22.4 0 1 10.2-7.6 21-17.8 10.4-9.9 30.5-27.7 43-38.2 5.8-4.9 14.3-12.2 19-16.1 4.6-4 9.2-7.3 10.1-7.3s5 2.8 9 6.2c23.4 19.6 51.9 32.6 86.8 39.8 12.7 2.6 13.9 3.2 14.5 7.3.2 1.7 1.4 9.5 2.5 17.2 3.9 26.5 5.1 37 6.6 56.5.8 10.7 1.9 23.3 2.5 28 .5 4.7 1 12.6 1 17.7 0 7.9-.3 9.4-1.8 10.2-2.2 1.2-38.1-2.8-54-5.9-50.2-9.8-98.4-32.3-139.2-64.8-13.9-11.1-22.5-18.9-25.2-22.7-1.2-1.9-3.3-4-4.6-4.7-5.7-3-31.3-35.2-43.7-54.8-14.9-23.7-33.1-64.9-36-81.2-.8-4.4-3.2-5.5-7.2-3.6-2.3 1.1-2.8 2-2.7 4.8.1 1.9.7 5.1 1.4 7s2.1 5.7 3 8.5c23.1 67.7 64.9 124 123 165.7 49.8 35.6 114.4 58.3 172.3 60.5 12.2.5 14.9.9 15.6 2.2.5.9 1.6 18.1 2.6 38.4 1 20.2 2.2 36.4 2.6 36 .4-.5 1.1-16.9 1.6-36.5 1-41 .7-39.8 9.4-39.8 6.5 0 7.9-.7 7.9-4 0-3.7-1.1-4.3-7.8-4.6-6.4-.2-7.4-1.3-6.7-7.4.3-2.5 1-12.6 1.5-22.5.6-9.9 1.3-18.9 1.5-20 .3-1.1 1.2-10.1 2-20 .9-9.9 2.3-22.3 3.1-27.5 4.1-27.1 5.9-36.6 6.7-37.1.5-.4 3.3-1 6.1-1.3 7.7-1.1 34.4-7.7 36.2-9.1 1.4-1 1.5-1.7.5-4.8-1.5-4.6-2.2-5-5.8-3.6-5.4 2.1-21.8 5.9-28.1 6.5l-6.4.7.4-4.9c1.1-11.2 11.3-42.2 19.7-59.6 7.4-15.1 11.2-20.8 13.8-20.8 4.7 0 48.8 27.8 60 37.8 2.9 2.6 3.3 3.4 2.4 5-1.2 2.3-17.4 14-26.4 19.1-3.2 1.8-6.1 4-6.4 4.7-.9 2.5 1.7 7.4 4 7.4 3.7 0 21.7-11.5 33.6-21.4 2.3-2 5.1-3.6 6-3.6 1.9 0 39.6 32.2 69.6 59.4 19.4 17.6 23.5 21.1 23.5 20.2 0-.7-11.8-14-25.2-28.2-23.4-25-54.8-62.4-54.8-65.2 0-1 1.4-3.1 3.1-4.8 4.4-4.1 16-20.5 21.4-30.2 11.3-20 19.6-44.1 22.9-66.2 1.3-8.8 2-9.3 13.6-10.9 33.4-4.6 47-6.2 59.3-7.1 7.8-.6 17.4-1.5 21.2-2 3.9-.6 14.9-1.4 24.5-2 9.6-.5 24.9-1.4 34-1.9s26.9-1.5 39.5-2.2c24.7-1.3 35.6-2.6 23-2.8-38.8-.7-75.3-2.4-89-4.1-3.8-.5-10.6-1-15.1-1-9.8 0-58-4.4-72.4-6.6-27.6-4.1-35.5-5.5-36.6-6.5-.7-.6-1.6-3.6-2-6.7-1.5-11.9-9.2-39.8-15.1-54.2l-5.9-14.5-3.3.2c-1.9 0-4 .8-4.9 1.7-1.4 1.4-1.2 2.4 2.2 10.3 6 13.9 6.4 15 11.1 30.7 2.4 8.3 4.7 18.3 5.1 22.3l.7 7.3h-3.7c-7.1 0-37-9-53-16-11.4-5-24.7-12-27.8-14.8-2.2-1.8-2.3-5-.3-7.8.7-1.2 2.8-4.8 4.6-8 6.8-12.6 30.9-47.7 35.2-51.2 2.2-1.9 5.1.2 10.2 7.6 2.3 3.1 5 5.8 6.1 6s3.1-.9 4.7-2.6l2.8-2.9-5.7-7.2c-3.1-3.9-6-7.1-6.4-7.1s-1.2-1.2-1.9-2.6c-1.1-2.4-.9-3.1 2.1-6.8 6.8-8.6 29.1-34 50.8-58 31.3-34.5 31.4-35.2 1.4-8-18.4 16.7-45 40.1-58.7 51.6-3.8 3.2-7.6 5.8-8.6 5.8-.9 0-4.4-2-7.7-4.4s-7.5-5.1-9.2-6c-3.1-1.6-3.3-1.6-5.8.9-1.4 1.4-2.4 3.3-2.2 4.3.2.9 3.6 3.9 7.6 6.5 3.9 2.6 7.2 5.3 7.2 6 0 1.7-3.8 5.2-13 11.8-12.7 9.3-33.3 22.9-34.5 22.9-.2 0-3.3 1.8-6.9 4.1-3.8 2.3-8 4.2-9.8 4.3-2.9.1-3.6-.5-7.5-6.4-5-7.6-13.7-27.1-18.8-42-9-26.4-17.3-71-21-112.5-3-33.2-3.5-39.6-5.1-61-1.6-21.5-3.2-62.8-3.3-83.3-.1-20.2-1.7-9.6-3.4 23M479.5 468.3c11.3 13.5 36.5 53.6 36.5 58 0 2.5-4.5 5.3-20.5 13.2-19.3 9.5-55.1 21.3-61.7 20.3-2.1-.3-2.3-.7-2-5.8.6-12.4 8.6-37.1 17.5-54.4 7.4-14.3 22.5-35.6 25.3-35.6.7 0 2.9 1.9 4.9 4.3m309.8 137.6c1.6 6.1-6.9 35.2-15.4 53.1-9.8 20.4-26.4 43.9-30.1 42.5-3.6-1.4-29.2-38.8-37.1-54.2-5-9.8-4.9-10 4.4-15.7 13.2-8.1 35.1-16.7 63.9-24.9 10.9-3.1 13.6-3.3 14.3-.8m-229.9 77c5.7 8.8 10.6 19.4 16.3 34.6 4.8 13.1 12.5 41.4 11.6 42.8-1.3 2.2-21.3-2.2-39.3-8.5-16.3-5.8-41.3-20.2-53.1-30.6-5.2-4.6-4.9-5.7 2.4-10.9 21.4-15 31.4-21.7 39.7-26.3 5.2-2.9 10.4-5.9 11.5-6.6 4.3-2.8 6.3-1.8 10.9 5.5" />
  <path d="M568 251.6c-5.8.7-15.2 2.1-21 3.1l-10.5 1.9-.3 3.5c-.4 6.3 0 6.5 15.5 3.9 7.6-1.3 17.4-2.7 21.8-3.3 4.4-.5 8.6-1.1 9.3-1.3 1.3-.4 1.6-5.1.6-7.8-.7-1.8-1-1.8-15.4 0m69 1.5c-.6 1.1-1 3-.8 4.1.4 2.5 1.4 2.8 18.3 5.3 24.2 3.5 46 9.2 68.6 18 34.6 13.6 69.9 34.6 97.9 58.4 11 9.3 38.2 37.1 46.2 47.1 37.6 47.2 60.5 100.5 65.9 153.5.7 6.6 1.6 12.8 2.1 13.7 1 2.1 5.8 2.4 7.6.6.7-.7 1.2-3.1 1.2-5.3 0-5.1-4.4-33.5-6.6-43-12.6-53.8-40.8-105-81.5-148-5.7-6.1-11.7-12.1-13.4-13.4-1.6-1.4-5.7-5-9-8-17.5-16.2-45.5-35.4-71.3-48.8-34.6-18-75.1-30.9-111.2-35.3-11.6-1.4-12.8-1.3-14 1.1m10.2 145.5c-1.8 3.9 0 6.1 6.6 7.9 11.6 3.2 21.9 6.8 30.1 10.6 4.6 2.2 9.1 3.9 10.1 3.9.9 0 2.7-1.1 4-2.5 3.2-3.5 2.1-5.2-6-9.2-7.6-3.7-14.7-6.3-28.5-10.4-12.5-3.6-14.8-3.7-16.3-.3m377.6 183.1c.7.3 1.6.2 1.9-.1.4-.3-.2-.6-1.3-.5-1.1 0-1.4.3-.6.6m-90.6 35.5c-.5.7-1.3 4.9-1.7 9.3-.7 8.1-3.7 23.4-7.5 38-11.4 44.4-34.1 88.7-63.8 124.5-8.3 10-34.5 36.1-44.2 43.9-39.5 32.1-82.5 53.8-128 64.6-15.9 3.7-16 3.8-16 7.9 0 6.1 1.1 6.1 20.2 1.2 66.8-17.4 119.6-49.1 166.2-100.1 41.5-45.4 70.5-104.7 80.7-165l2.9-17.4c.7-3.8.6-5.9-.1-6.8-1.4-1.7-7.3-1.7-8.7-.1" />
</svg>
