<?xml version="1.0" standalone="no"?>
<!DOCTYPE svg PUBLIC "-//W3C//DTD SVG 20010904//EN"
 "http://www.w3.org/TR/2001/REC-SVG-20010904/DTD/svg10.dtd">
<svg version="1.0" xmlns="http://www.w3.org/2000/svg"
 width="1208.000000pt" height="1208.000000pt" viewBox="0 0 1208.000000 1208.000000"
 preserveAspectRatio="xMidYMid meet">

<g transform="translate(0.000000,1208.000000) scale(0.100000,-0.100000)"
fill="#000000" stroke="none">
<path d="M6077 10018 c-25 -469 -36 -638 -52 -833 -8 -93 -19 -231 -25 -305
-32 -425 -127 -938 -225 -1219 -57 -165 -63 -178 -116 -283 -61 -120 -107
-188 -126 -188 -50 0 -582 338 -616 391 -17 27 -2 45 95 118 207 155 409 251
672 320 109 29 127 43 108 86 -12 26 -14 27 -75 20 -99 -12 -323 -88 -472
-162 -117 -58 -275 -161 -370 -242 -32 -28 -63 -51 -67 -51 -10 0 -150 114
-283 230 -60 53 -157 137 -215 187 -58 50 -161 143 -230 208 -133 125 -210
189 -195 165 15 -25 175 -208 276 -314 96 -102 440 -498 494 -569 28 -38 28
-38 9 -62 -264 -327 -383 -585 -449 -970 -8 -49 -19 -92 -23 -96 -6 -6 -102
-21 -397 -64 -265 -39 -920 -85 -927 -65 -1 5 0 69 5 142 36 620 260 1224 640
1733 214 285 524 576 821 770 155 101 246 150 456 248 86 39 83 38 209 86 107
41 124 57 100 99 -18 33 -32 33 -124 -3 -38 -15 -79 -30 -90 -33 -11 -3 -83
-34 -160 -69 -418 -190 -769 -445 -1078 -781 -340 -371 -580 -784 -724 -1247
-37 -119 -56 -189 -98 -376 -17 -78 -42 -284 -53 -452 -6 -84 -13 -122 -24
-133 -14 -15 -218 -25 -698 -34 -40 -1 -50 -4 -35 -10 11 -5 128 -14 260 -20
311 -15 474 -26 479 -31 2 -2 13 -100 24 -218 14 -151 24 -216 33 -222 15 -10
58 -3 72 10 4 4 3 73 -2 152 -6 79 -11 173 -11 208 l0 64 153 -6 c83 -3 186
-11 227 -16 41 -6 139 -15 218 -21 203 -15 577 -64 693 -92 38 -9 49 -26 49
-81 0 -46 17 -67 53 -67 48 0 61 13 54 49 -13 63 11 74 101 47 26 -7 85 -24
132 -37 261 -70 610 -234 610 -286 0 -38 -234 -415 -345 -555 -28 -36 -53 -58
-65 -58 -49 0 -237 290 -320 493 -40 97 -54 109 -96 87 -28 -16 -37 -35 -25
-58 5 -9 19 -42 31 -72 62 -157 157 -318 271 -462 38 -49 69 -93 69 -98 0 -15
-370 -444 -604 -700 -108 -118 -196 -219 -196 -224 0 -10 102 76 210 178 104
99 305 277 430 382 58 49 143 122 190 161 46 40 92 73 101 73 9 0 50 -28 90
-62 234 -196 519 -326 868 -398 127 -26 139 -32 145 -73 2 -17 14 -95 25 -172
39 -265 51 -370 66 -565 8 -107 19 -233 25 -280 5 -47 10 -126 10 -177 0 -79
-3 -94 -18 -102 -22 -12 -381 28 -540 59 -502 98 -984 323 -1392 648 -139 111
-225 189 -252 227 -12 19 -33 40 -46 47 -57 30 -313 352 -437 548 -149 237
-331 649 -360 812 -8 44 -32 55 -72 36 -23 -11 -28 -20 -27 -48 1 -19 7 -51
14 -70 7 -19 21 -57 30 -85 231 -677 649 -1240 1230 -1657 498 -356 1144 -583
1723 -605 122 -5 149 -9 156 -22 5 -9 16 -181 26 -384 10 -202 22 -364 26
-360 4 5 11 169 16 365 10 410 7 398 94 398 65 0 79 7 79 40 0 37 -11 43 -78
46 -64 2 -74 13 -67 74 3 25 10 126 15 225 6 99 13 189 15 200 3 11 12 101 20
200 9 99 23 223 31 275 41 271 59 366 67 371 5 4 33 10 61 13 77 11 344 77
362 91 14 10 15 17 5 48 -15 46 -22 50 -58 36 -54 -21 -218 -59 -281 -65 l-64
-7 4 49 c11 112 113 422 197 596 74 151 112 208 138 208 47 0 488 -278 600
-378 29 -26 33 -34 24 -50 -12 -23 -174 -140 -264 -191 -32 -18 -61 -40 -64
-47 -9 -25 17 -74 40 -74 37 0 217 115 336 214 23 20 51 36 60 36 19 0 396
-322 696 -594 194 -176 235 -211 235 -202 0 7 -118 140 -252 282 -234 250
-548 624 -548 652 0 10 14 31 31 48 44 41 160 205 214 302 113 200 196 441
229 662 13 88 20 93 136 109 334 46 470 62 593 71 78 6 174 15 212 20 39 6
149 14 245 20 96 5 249 14 340 19 91 5 269 15 395 22 247 13 356 26 230 28
-388 7 -753 24 -890 41 -38 5 -106 10 -151 10 -98 0 -580 44 -724 66 -276 41
-355 55 -366 65 -7 6 -16 36 -20 67 -15 119 -92 398 -151 542 l-59 145 -33 -2
c-19 0 -40 -8 -49 -17 -14 -14 -12 -24 22 -103 60 -139 64 -150 111 -307 24
-83 47 -183 51 -223 l7 -73 -37 0 c-71 0 -370 90 -530 160 -114 50 -247 120
-278 148 -22 18 -23 50 -3 78 7 12 28 48 46 80 68 126 309 477 352 512 22 19
51 -2 102 -76 23 -31 50 -58 61 -60 11 -2 31 9 47 26 l28 29 -57 72 c-31 39
-60 71 -64 71 -4 0 -12 12 -19 26 -11 24 -9 31 21 68 68 86 291 340 508 580
313 345 314 352 14 80 -184 -167 -450 -401 -587 -516 -38 -32 -76 -58 -86 -58
-9 0 -44 20 -77 44 -33 24 -75 51 -92 60 -31 16 -33 16 -58 -9 -14 -14 -24
-33 -22 -43 2 -9 36 -39 76 -65 39 -26 72 -53 72 -60 0 -17 -38 -52 -130 -118
-127 -93 -333 -229 -345 -229 -2 0 -33 -18 -69 -41 -38 -23 -80 -42 -98 -43
-29 -1 -36 5 -75 64 -50 76 -137 271 -188 420 -90 264 -173 710 -210 1125 -30
332 -35 396 -51 610 -16 215 -32 628 -33 833 -1 202 -17 96 -34 -230z m-1282
-2621 c113 -135 365 -536 365 -580 0 -25 -45 -53 -205 -132 -193 -95 -551
-213 -617 -203 -21 3 -23 7 -20 58 6 124 86 371 175 544 74 143 225 356 253
356 7 0 29 -19 49 -43z m3098 -1376 c16 -61 -69 -352 -154 -531 -98 -204 -264
-439 -301 -425 -36 14 -292 388 -371 542 -50 98 -49 100 44 157 132 81 351
167 639 249 109 31 136 33 143 8z m-2299 -770 c57 -88 106 -194 163 -346 48
-131 125 -414 116 -428 -13 -22 -213 22 -393 85 -163 58 -413 202 -531 306
-52 46 -49 57 24 109 214 150 314 217 397 263 52 29 104 59 115 66 43 28 63
18 109 -55z"/>
<path d="M5680 9564 c-58 -7 -152 -21 -210 -31 l-105 -19 -3 -35 c-4 -63 0
-65 155 -39 76 13 174 27 218 33 44 5 86 11 93 13 13 4 16 51 6 78 -7 18 -10
18 -154 0z"/>
<path d="M6370 9549 c-6 -11 -10 -30 -8 -41 4 -25 14 -28 183 -53 242 -35 460
-92 686 -180 346 -136 699 -346 979 -584 110 -93 382 -371 462 -471 376 -472
605 -1005 659 -1535 7 -66 16 -128 21 -137 10 -21 58 -24 76 -6 7 7 12 31 12
53 0 51 -44 335 -66 430 -126 538 -408 1050 -815 1480 -57 61 -117 121 -134
134 -16 14 -57 50 -90 80 -175 162 -455 354 -713 488 -346 180 -751 309 -1112
353 -116 14 -128 13 -140 -11z"/>
<path d="M6472 8094 c-18 -39 0 -61 66 -79 116 -32 219 -68 301 -106 46 -22
91 -39 101 -39 9 0 27 11 40 25 32 35 21 52 -60 92 -76 37 -147 63 -285 104
-125 36 -148 37 -163 3z"/>
<path d="M10248 6263 c7 -3 16 -2 19 1 4 3 -2 6 -13 5 -11 0 -14 -3 -6 -6z"/>
<path d="M9342 5908 c-5 -7 -13 -49 -17 -93 -7 -81 -37 -234 -75 -380 -114
-444 -341 -887 -638 -1245 -83 -100 -345 -361 -442 -439 -395 -321 -825 -538
-1280 -646 -159 -37 -160 -38 -160 -79 0 -61 11 -61 202 -12 668 174 1196 491
1662 1001 415 454 705 1047 807 1650 11 66 24 144 29 174 7 38 6 59 -1 68 -14
17 -73 17 -87 1z"/>
</g>
</svg>
