<?xml version="1.0" encoding="UTF-8"?>
<svg version="1.1" xmlns="http://www.w3.org/2000/svg" width="218" height="91">
<path d="M0 0 C5.01300667 -0.05012236 10.02586167 -0.08605439 15.0390625 -0.10986328 C16.73798164 -0.11980786 18.43688419 -0.13336831 20.13574219 -0.15087891 C50.10745829 -0.45165764 50.10745829 -0.45165764 62.875 7.875 C69.00892048 14.00892048 69.22223125 21.59440221 69.25 29.75 C69.21617647 44.42647059 69.21617647 44.42647059 64.41796875 49.7578125 C61.21087829 52.65048233 57.71881888 54.81471468 54 57 C54.34256836 57.59425781 54.68513672 58.18851563 55.03808594 58.80078125 C56.61106314 61.53251478 58.18055065 64.26623823 59.75 67 C60.28882813 67.93457031 60.82765625 68.86914062 61.3828125 69.83203125 C67.8014612 81.02552838 67.8014612 81.02552838 70 86 C69.505 87.485 69.505 87.485 69 89 C65.39598519 89.08701039 61.79223988 89.14039388 58.1875 89.1875 C57.16333984 89.21263672 56.13917969 89.23777344 55.08398438 89.26367188 C54.10107422 89.27333984 53.11816406 89.28300781 52.10546875 89.29296875 C51.19949951 89.3086792 50.29353027 89.32438965 49.36010742 89.34057617 C46.47757604 88.92461142 45.74229603 88.29293337 44 86 C43.16903012 84.61663461 42.392261 83.19985414 41.66015625 81.76171875 C41.23669922 80.94123047 40.81324219 80.12074219 40.37695312 79.27539062 C39.94318359 78.42138672 39.50941406 77.56738281 39.0625 76.6875 C35.66133309 69.93605716 35.66133309 69.93605716 31.68359375 63.51953125 C30 61 30 61 30 59 C28.02 59 26.04 59 24 59 C24.00785522 60.30988892 24.00785522 60.30988892 24.01586914 61.64624023 C24.03287751 64.87589273 24.04543369 68.10552245 24.05493164 71.33520508 C24.0599708 72.73495228 24.06680216 74.1346942 24.07543945 75.53442383 C24.0875232 77.54245777 24.09269807 79.55052957 24.09765625 81.55859375 C24.10551147 83.37315063 24.10551147 83.37315063 24.11352539 85.22436523 C24 88 24 88 23 89 C21.37742456 89.0991657 19.75060169 89.13079777 18.125 89.1328125 C17.14015625 89.13410156 16.1553125 89.13539062 15.140625 89.13671875 C14.10421875 89.13285156 13.0678125 89.12898438 12 89.125 C10.44539063 89.13080078 10.44539063 89.13080078 8.859375 89.13671875 C7.87453125 89.13542969 6.8896875 89.13414063 5.875 89.1328125 C4.96492188 89.13168457 4.05484375 89.13055664 3.1171875 89.12939453 C1 89 1 89 0 88 C-0.09516211 85.2611158 -0.12554594 82.54752059 -0.11352539 79.80834961 C-0.11367142 78.94988937 -0.11381744 78.09142914 -0.1139679 77.20695496 C-0.11326847 74.35539262 -0.1054747 71.50389475 -0.09765625 68.65234375 C-0.09579218 66.68079158 -0.09436822 64.70923895 -0.09336853 62.73768616 C-0.08954251 57.53773733 -0.07971152 52.33781625 -0.06866455 47.13787842 C-0.05845222 41.83606339 -0.05387129 36.5342439 -0.04882812 31.23242188 C-0.03808933 20.82160237 -0.02101191 10.41080349 0 0 Z M24 20 C24 26.27 24 32.54 24 39 C26.536875 39.0825 29.07375 39.165 31.6875 39.25 C32.47729248 39.28641602 33.26708496 39.32283203 34.08081055 39.36035156 C37.78399145 39.4184113 39.68843356 39.17780493 42.984375 37.296875 C45.93783375 33.93130572 45.64518617 31.65129149 45.4296875 27.34765625 C45.13552025 24.81017832 45.13552025 24.81017832 43.1875 22.4375 C37.45333844 18.66933669 30.59693187 19.93947769 24 20 Z " fill="#DDC866" transform="translate(72,1)"/>
<path d="M0 0 C9.384375 -0.020625 18.76875 -0.04125 28.4375 -0.0625 C31.40419678 -0.071604 34.37089355 -0.08070801 37.42749023 -0.09008789 C39.76285761 -0.0930068 42.09822549 -0.09555542 44.43359375 -0.09765625 C45.65921021 -0.10277222 46.88482666 -0.10788818 48.14758301 -0.11315918 C49.30471802 -0.11328003 50.46185303 -0.11340088 51.65405273 -0.11352539 C52.664431 -0.115746 53.67480927 -0.11796661 54.71580505 -0.12025452 C57 -0 57 -0 58 1 C58.08631874 2.34267413 58.10706473 3.68974322 58.09765625 5.03515625 C58.09515869 5.76355713 58.09266113 6.49195801 58.09008789 7.24243164 C58.08098389 8.1730542 58.07187988 9.10367676 58.0625 10.0625 C58.041875 13.011875 58.02125 15.96125 58 19 C46.45 19 34.9 19 23 19 C23 24.28 23 29.56 23 35 C33.89 35 44.78 35 56 35 C57.48619895 37.97239791 57.13177009 40.69619578 57.125 44 C57.12886719 45.8871875 57.12886719 45.8871875 57.1328125 47.8125 C57 51 57 51 56 53 C45.11 53 34.22 53 23 53 C23 58.61 23 64.22 23 70 C34.55 70 46.1 70 58 70 C58 75.94 58 81.88 58 88 C38.86 88 19.72 88 0 88 C0 58.96 0 29.92 0 0 Z " fill="#DDC866" transform="translate(0,1)"/>
<path d="M0 0 C1.12083984 -0.01224609 2.24167969 -0.02449219 3.39648438 -0.03710938 C10.62655262 -0.049698 17.23742454 0.68959699 24.3125 2.1875 C24.3125 8.4575 24.3125 14.7275 24.3125 21.1875 C22.683125 21.0225 21.05375 20.8575 19.375 20.6875 C14.08178658 20.26001958 8.80816113 20.01652681 3.5 19.9375 C2.79560791 19.91623047 2.09121582 19.89496094 1.36547852 19.87304688 C-3.81255739 19.83888855 -7.2329893 20.70594071 -11.6875 23.1875 C-14.36378942 26.82213799 -13.95929236 30.9576509 -13.91796875 35.27734375 C-13.91751053 36.05888321 -13.91705231 36.84042267 -13.9165802 37.64564514 C-13.91356458 39.29559857 -13.90569895 40.94554931 -13.89331055 42.59545898 C-13.87508997 45.11257085 -13.87280079 47.62931351 -13.87304688 50.14648438 C-13.86812967 51.75260733 -13.86230047 53.3587278 -13.85546875 54.96484375 C-13.85435593 55.71394516 -13.8532431 56.46304657 -13.85209656 57.23484802 C-13.81808367 61.00652003 -13.59144631 64.51986745 -12.6875 68.1875 C-7.51134309 70.2929143 -3.04912635 70.46253218 2.4375 70.375 C3.27192627 70.36855469 4.10635254 70.36210938 4.96606445 70.35546875 C11.44400686 70.27545557 17.87218667 69.90737534 24.3125 69.1875 C25.898369 72.359238 25.69116445 75.82263822 25.875 79.3125 C25.91818359 80.06660156 25.96136719 80.82070312 26.00585938 81.59765625 C26.1119832 83.46071888 26.21275001 85.32408524 26.3125 87.1875 C10.47599261 92.68981936 -10.56256298 94.32794481 -26.1171875 87.05078125 C-30.98993475 84.22173202 -34.43228893 80.98887073 -36.77026367 75.77099609 C-38.0925081 70.60519794 -37.99266983 65.60137952 -37.98828125 60.2890625 C-37.99256638 59.14013519 -37.9968515 57.99120789 -38.00126648 56.8074646 C-38.00699884 54.3817409 -38.00751812 51.95600002 -38.00317383 49.53027344 C-38.00001697 45.83238171 -38.02347718 42.13529274 -38.04882812 38.4375 C-38.05110163 36.07552184 -38.05180438 33.71354153 -38.05078125 31.3515625 C-38.059991 30.25236481 -38.06920074 29.15316711 -38.07868958 28.0206604 C-38.03606967 20.89683164 -37.53434482 14.75394639 -32.92578125 8.98046875 C-22.82466893 0.55946031 -12.81499766 0.0072442 0 0 Z " fill="#DDC866" transform="translate(191.6875,-0.1875)"/>
</svg>
