<?xml version="1.0" encoding="UTF-8"?>
<svg version="1.1" xmlns="http://www.w3.org/2000/svg" width="455" height="91">
<path d="M0 0 C5.01300667 -0.05012236 10.02586167 -0.08605439 15.0390625 -0.10986328 C16.73798164 -0.11980786 18.43688419 -0.13336831 20.13574219 -0.15087891 C50.10745829 -0.45165764 50.10745829 -0.45165764 62.875 7.875 C69.00892048 14.00892048 69.22223125 21.59440221 69.25 29.75 C69.21617647 44.42647059 69.21617647 44.42647059 64.41796875 49.7578125 C61.21087829 52.65048233 57.71881888 54.81471468 54 57 C54.34256836 57.59425781 54.68513672 58.18851563 55.03808594 58.80078125 C56.61106314 61.53251478 58.18055065 64.26623823 59.75 67 C60.28882813 67.93457031 60.82765625 68.86914062 61.3828125 69.83203125 C67.8014612 81.02552838 67.8014612 81.02552838 70 86 C69.505 87.485 69.505 87.485 69 89 C65.39598519 89.08701039 61.79223988 89.14039388 58.1875 89.1875 C57.16333984 89.21263672 56.13917969 89.23777344 55.08398438 89.26367188 C54.10107422 89.27333984 53.11816406 89.28300781 52.10546875 89.29296875 C51.19949951 89.3086792 50.29353027 89.32438965 49.36010742 89.34057617 C46.47757604 88.92461142 45.74229603 88.29293337 44 86 C43.16903012 84.61663461 42.392261 83.19985414 41.66015625 81.76171875 C41.23669922 80.94123047 40.81324219 80.12074219 40.37695312 79.27539062 C39.94318359 78.42138672 39.50941406 77.56738281 39.0625 76.6875 C35.66133309 69.93605716 35.66133309 69.93605716 31.68359375 63.51953125 C30 61 30 61 30 59 C28.02 59 26.04 59 24 59 C24.00785522 60.30988892 24.00785522 60.30988892 24.01586914 61.64624023 C24.03287751 64.87589273 24.04543369 68.10552245 24.05493164 71.33520508 C24.0599708 72.73495228 24.06680216 74.1346942 24.07543945 75.53442383 C24.0875232 77.54245777 24.09269807 79.55052957 24.09765625 81.55859375 C24.10551147 83.37315063 24.10551147 83.37315063 24.11352539 85.22436523 C24 88 24 88 23 89 C21.37742456 89.0991657 19.75060169 89.13079777 18.125 89.1328125 C17.14015625 89.13410156 16.1553125 89.13539062 15.140625 89.13671875 C14.10421875 89.13285156 13.0678125 89.12898438 12 89.125 C10.44539063 89.13080078 10.44539063 89.13080078 8.859375 89.13671875 C7.87453125 89.13542969 6.8896875 89.13414063 5.875 89.1328125 C4.96492188 89.13168457 4.05484375 89.13055664 3.1171875 89.12939453 C1 89 1 89 0 88 C-0.09516211 85.2611158 -0.12554594 82.54752059 -0.11352539 79.80834961 C-0.11367142 78.94988937 -0.11381744 78.09142914 -0.1139679 77.20695496 C-0.11326847 74.35539262 -0.1054747 71.50389475 -0.09765625 68.65234375 C-0.09579218 66.68079158 -0.09436822 64.70923895 -0.09336853 62.73768616 C-0.08954251 57.53773733 -0.07971152 52.33781625 -0.06866455 47.13787842 C-0.05845222 41.83606339 -0.05387129 36.5342439 -0.04882812 31.23242188 C-0.03808933 20.82160237 -0.02101191 10.41080349 0 0 Z M24 20 C24 26.27 24 32.54 24 39 C26.536875 39.0825 29.07375 39.165 31.6875 39.25 C32.47729248 39.28641602 33.26708496 39.32283203 34.08081055 39.36035156 C37.78399145 39.4184113 39.68843356 39.17780493 42.984375 37.296875 C45.93783375 33.93130572 45.64518617 31.65129149 45.4296875 27.34765625 C45.13552025 24.81017832 45.13552025 24.81017832 43.1875 22.4375 C37.45333844 18.66933669 30.59693187 19.93947769 24 20 Z " fill="#DDC866" transform="translate(72,1)"/>
<path d="M0 0 C0.91644287 0.00523682 1.83288574 0.01047363 2.77709961 0.01586914 C4.26113281 0.02070313 4.26113281 0.02070313 5.77514648 0.02563477 C6.81606445 0.03401367 7.85698242 0.04239258 8.92944336 0.05102539 C10.49662109 0.05779297 10.49662109 0.05779297 12.09545898 0.06469727 C14.68601272 0.07652628 17.27644082 0.09384705 19.86694336 0.11352539 C22.67095757 6.94887876 25.22776464 13.83682703 27.62475586 20.82446289 C28.14247559 22.3230056 28.14247559 22.3230056 28.6706543 23.8518219 C29.77992467 27.06331093 30.88605318 30.27587098 31.99194336 33.48852539 C33.5109266 37.89411372 35.0318195 42.29903774 36.55444336 46.70336914 C36.92650909 47.77968094 37.29857483 48.85599274 37.68191528 49.96492004 C39.82716259 56.15615138 42.00501102 62.33373797 44.24194336 68.49243164 C44.60616898 69.49729614 44.60616898 69.49729614 44.97775269 70.52246094 C46.06185941 73.50853163 47.15533667 76.4906985 48.26196289 79.46850586 C48.62918457 80.47413574 48.99640625 81.47976562 49.37475586 82.51586914 C49.6907373 83.36656982 50.00671875 84.21727051 50.33227539 85.09375 C50.86694336 87.11352539 50.86694336 87.11352539 49.86694336 89.11352539 C46.24196002 89.14246471 42.61700623 89.16030331 38.99194336 89.17602539 C37.44313477 89.18859375 37.44313477 89.18859375 35.86303711 89.20141602 C34.8769043 89.20463867 33.89077148 89.20786133 32.87475586 89.21118164 C31.9635498 89.21641846 31.05234375 89.22165527 30.11352539 89.22705078 C27.86694336 89.11352539 27.86694336 89.11352539 25.86694336 88.11352539 C25.07601859 86.01786341 24.38167351 83.88517544 23.74194336 81.73852539 C23.38874023 80.57579102 23.03553711 79.41305664 22.67163086 78.21508789 C21.86694336 75.11352539 21.86694336 75.11352539 21.86694336 72.11352539 C13.28694336 72.44352539 4.70694336 72.77352539 -4.13305664 73.11352539 C-5.36676187 77.62886422 -5.36676187 77.62886422 -6.58569336 82.14819336 C-7.4131318 85.109864 -7.92560086 86.90606961 -10.13305664 89.11352539 C-12.37963867 89.34057617 -12.37963867 89.34057617 -15.14086914 89.30883789 C-16.62006836 89.29916992 -16.62006836 89.29916992 -18.12915039 89.28930664 C-19.67795898 89.26416992 -19.67795898 89.26416992 -21.25805664 89.23852539 C-22.8184668 89.22499023 -22.8184668 89.22499023 -24.41040039 89.21118164 C-26.98484756 89.18756286 -29.55883876 89.15462688 -32.13305664 89.11352539 C-33.13305664 87.11352539 -33.13305664 87.11352539 -32.69540405 85.26176453 C-32.43039093 84.50732559 -32.16537781 83.75288666 -31.89233398 82.97558594 C-31.59342255 82.11289597 -31.29451111 81.25020599 -30.98654175 80.3613739 C-30.65075104 79.41720108 -30.31496033 78.47302826 -29.96899414 77.50024414 C-29.62506622 76.51445877 -29.28113831 75.5286734 -28.92678833 74.51301575 C-27.79443474 71.27310419 -26.65140572 68.03707135 -25.50805664 64.80102539 C-24.72943445 62.58119327 -23.95144296 60.36113983 -23.17407227 58.14086914 C-21.59641483 53.63862096 -20.0144268 49.13792985 -18.42895508 44.63842773 C-16.32023446 38.65144691 -14.22802836 32.65883149 -12.14086914 26.66430664 C-11.2524279 24.11716083 -10.36348814 21.57018995 -9.47418213 19.02334595 C-8.91393529 17.4182414 -8.35432306 15.81291522 -7.79534912 14.20736694 C-7.02537787 11.99798348 -6.25167351 9.78994578 -5.47680664 7.58227539 C-4.83001953 5.73279297 -4.83001953 5.73279297 -4.17016602 3.84594727 C-2.76629163 0.14722738 -2.76629163 0.14722738 0 0 Z M7.86694336 29.11352539 C5.55694336 37.36352539 3.24694336 45.61352539 0.86694336 54.11352539 C5.81694336 54.11352539 10.76694336 54.11352539 15.86694336 54.11352539 C14.18929321 45.57276098 11.52692155 37.38788503 8.86694336 29.11352539 C8.53694336 29.11352539 8.20694336 29.11352539 7.86694336 29.11352539 Z " fill="#DDC865" transform="translate(257.133056640625,0.886474609375)"/>
<path d="M0 0 C7.26 0 14.52 0 22 0 C26.49951634 10.12391176 26.49951634 10.12391176 27.85595703 14.07543945 C28.16404297 14.96629745 28.47212891 15.85715546 28.78955078 16.77500916 C29.10907715 17.71163895 29.42860352 18.64826874 29.7578125 19.61328125 C30.10295898 20.61367935 30.44810547 21.61407745 30.80371094 22.64479065 C31.91448133 25.86610896 33.01991706 29.08922665 34.125 32.3125 C35.64367109 36.72861105 37.16493801 41.14382278 38.6875 45.55859375 C39.05956573 46.63820374 39.43163147 47.71781372 39.81497192 48.83013916 C41.95357333 55.02068107 44.12972231 61.19501048 46.375 67.34765625 C46.73922562 68.34860069 46.73922562 68.34860069 47.11080933 69.36976624 C48.19340345 72.34015063 49.28640387 75.30606189 50.39501953 78.2668457 C50.76224121 79.2693335 51.12946289 80.27182129 51.5078125 81.3046875 C51.98178467 82.5728833 51.98178467 82.5728833 52.46533203 83.86669922 C53 86 53 86 52 89 C48.39625537 89.14500644 44.79325758 89.23396763 41.1875 89.3125 C40.16333984 89.35439453 39.13917969 89.39628906 38.08398438 89.43945312 C37.10107422 89.45556641 36.11816406 89.47167969 35.10546875 89.48828125 C34.19949951 89.51446533 33.29353027 89.54064941 32.36010742 89.56762695 C31.58127197 89.38031006 30.80243652 89.19299316 30 89 C27 84 27 84 24 72 C15.42 72 6.84 72 -2 72 C-3.23540375 77.21845992 -3.23540375 77.21845992 -4.45263672 82.44116211 C-4.90723994 84.31006063 -5.45154187 86.15646008 -6 88 C-8.45275141 89.2263757 -10.0505781 89.11415314 -12.7890625 89.09765625 C-13.73007812 89.09443359 -14.67109375 89.09121094 -15.640625 89.08789062 C-16.62546875 89.07951172 -17.6103125 89.07113281 -18.625 89.0625 C-19.61757813 89.05798828 -20.61015625 89.05347656 -21.6328125 89.04882812 C-24.0886016 89.03702145 -26.54427104 89.020554 -29 89 C-30.42023919 85.20770783 -29.54366457 82.85478231 -28.22094727 79.11181641 C-27.80623672 77.92182037 -27.39152618 76.73182434 -26.96424866 75.50576782 C-26.49854576 74.20427851 -26.03259121 72.90287922 -25.56640625 71.6015625 C-25.08999811 70.24782359 -24.61450468 68.89376247 -24.13987732 67.53939819 C-22.88161997 63.9572835 -21.61039943 60.37989908 -20.33660889 56.80328369 C-19.07362636 53.24934665 -17.82367847 49.69083591 -16.57226562 46.1328125 C-11.1442098 30.72012874 -5.61276791 15.34647151 0 0 Z M11 30 C7.55623056 37.23191583 4 45.94714352 4 54 C8.95 54 13.9 54 19 54 C16.69 46.08 14.38 38.16 12 30 C11.67 30 11.34 30 11 30 Z " fill="#DDC865" transform="translate(402,1)"/>
<path d="M0 0 C9.384375 -0.020625 18.76875 -0.04125 28.4375 -0.0625 C31.40419678 -0.071604 34.37089355 -0.08070801 37.42749023 -0.09008789 C39.76285761 -0.0930068 42.09822549 -0.09555542 44.43359375 -0.09765625 C45.65921021 -0.10277222 46.88482666 -0.10788818 48.14758301 -0.11315918 C49.30471802 -0.11328003 50.46185303 -0.11340088 51.65405273 -0.11352539 C52.664431 -0.115746 53.67480927 -0.11796661 54.71580505 -0.12025452 C57 -0 57 -0 58 1 C58.08631874 2.34267413 58.10706473 3.68974322 58.09765625 5.03515625 C58.09515869 5.76355713 58.09266113 6.49195801 58.09008789 7.24243164 C58.08098389 8.1730542 58.07187988 9.10367676 58.0625 10.0625 C58.041875 13.011875 58.02125 15.96125 58 19 C46.45 19 34.9 19 23 19 C23 24.28 23 29.56 23 35 C33.89 35 44.78 35 56 35 C57.48619895 37.97239791 57.13177009 40.69619578 57.125 44 C57.12886719 45.8871875 57.12886719 45.8871875 57.1328125 47.8125 C57 51 57 51 56 53 C45.11 53 34.22 53 23 53 C23 58.61 23 64.22 23 70 C34.55 70 46.1 70 58 70 C58 75.94 58 81.88 58 88 C38.86 88 19.72 88 0 88 C0 58.96 0 29.92 0 0 Z " fill="#DDC866" transform="translate(0,1)"/>
<path d="M0 0 C7.92 0 15.84 0 24 0 C27.8775868 11.40591803 31.4094884 22.88216922 34.8125 34.4375 C35.31942564 36.15176246 35.82658582 37.86595558 36.33398438 39.58007812 C37.55868428 43.71926086 38.78024371 47.85935789 40 52 C44.40213053 37.83317491 48.73987908 23.65355413 52.82836914 9.39257812 C53.10028076 8.44833984 53.37219238 7.50410156 53.65234375 6.53125 C54.00800415 5.28698242 54.00800415 5.28698242 54.37084961 4.01757812 C55 2 55 2 56 0 C63.59 0 71.18 0 79 0 C78.23710184 5.34028713 77.21455771 9.95209143 75.53149414 14.99902344 C75.15570473 16.14912651 75.15570473 16.14912651 74.77232361 17.32246399 C73.94907544 19.83671732 73.11737858 22.34807923 72.28515625 24.859375 C71.70806818 26.61325728 71.13136813 28.36726728 70.55503845 30.12139893 C69.34910709 33.78741905 68.13908452 37.45205508 66.92602539 41.11572266 C65.37092943 45.81323629 63.82520235 50.51376871 62.28238773 55.21532822 C61.09421821 58.83321086 59.90158836 62.44961051 58.70754814 66.06555939 C58.13573626 67.79871008 57.56520961 69.53228534 56.99598885 71.26628876 C56.2010866 73.68521294 55.40031615 76.10211425 54.59790039 78.51855469 C54.36354279 79.23547989 54.12918518 79.95240509 53.88772583 80.6910553 C52.84893456 83.8003937 51.83215924 86.25176114 50 89 C47.93701172 89.34057617 47.93701172 89.34057617 45.4296875 89.29296875 C44.53378906 89.28330078 43.63789063 89.27363281 42.71484375 89.26367188 C41.77769531 89.23853516 40.84054687 89.21339844 39.875 89.1875 C38.93011719 89.17396484 37.98523438 89.16042969 37.01171875 89.14648438 C34.673884 89.11106264 32.33731989 89.05913077 30 89 C25.8931898 80.38411518 22.96022137 71.41428778 19.921875 62.3828125 C19.34491037 60.67642069 18.76769677 58.97011305 18.19024658 57.2638855 C16.98729479 53.70616423 15.78746242 50.14741056 14.58984375 46.58789062 C13.05358024 42.02275672 11.50929681 37.46038261 9.96268845 32.89874458 C8.77215045 29.38434038 7.58591308 25.86849642 6.40097809 22.35219955 C5.83296744 20.66839953 5.26359208 18.98505923 4.69283295 17.30218887 C3.89857443 14.95828326 3.11014226 12.61249777 2.32324219 10.26611328 C2.08640717 9.57103165 1.84957214 8.87595001 1.6055603 8.1598053 C0.65394921 5.30476954 0 3.03302194 0 0 Z " fill="#DDC865" transform="translate(300,1)"/>
<path d="M0 0 C1.12083984 -0.01224609 2.24167969 -0.02449219 3.39648438 -0.03710938 C10.62655262 -0.049698 17.23742454 0.68959699 24.3125 2.1875 C24.3125 8.4575 24.3125 14.7275 24.3125 21.1875 C22.683125 21.0225 21.05375 20.8575 19.375 20.6875 C14.08178658 20.26001958 8.80816113 20.01652681 3.5 19.9375 C2.79560791 19.91623047 2.09121582 19.89496094 1.36547852 19.87304688 C-3.81255739 19.83888855 -7.2329893 20.70594071 -11.6875 23.1875 C-14.36378942 26.82213799 -13.95929236 30.9576509 -13.91796875 35.27734375 C-13.91751053 36.05888321 -13.91705231 36.84042267 -13.9165802 37.64564514 C-13.91356458 39.29559857 -13.90569895 40.94554931 -13.89331055 42.59545898 C-13.87508997 45.11257085 -13.87280079 47.62931351 -13.87304688 50.14648438 C-13.86812967 51.75260733 -13.86230047 53.3587278 -13.85546875 54.96484375 C-13.85435593 55.71394516 -13.8532431 56.46304657 -13.85209656 57.23484802 C-13.81808367 61.00652003 -13.59144631 64.51986745 -12.6875 68.1875 C-7.51134309 70.2929143 -3.04912635 70.46253218 2.4375 70.375 C3.27192627 70.36855469 4.10635254 70.36210938 4.96606445 70.35546875 C11.44400686 70.27545557 17.87218667 69.90737534 24.3125 69.1875 C25.898369 72.359238 25.69116445 75.82263822 25.875 79.3125 C25.91818359 80.06660156 25.96136719 80.82070312 26.00585938 81.59765625 C26.1119832 83.46071888 26.21275001 85.32408524 26.3125 87.1875 C10.47599261 92.68981936 -10.56256298 94.32794481 -26.1171875 87.05078125 C-30.98993475 84.22173202 -34.43228893 80.98887073 -36.77026367 75.77099609 C-38.0925081 70.60519794 -37.99266983 65.60137952 -37.98828125 60.2890625 C-37.99256638 59.14013519 -37.9968515 57.99120789 -38.00126648 56.8074646 C-38.00699884 54.3817409 -38.00751812 51.95600002 -38.00317383 49.53027344 C-38.00001697 45.83238171 -38.02347718 42.13529274 -38.04882812 38.4375 C-38.05110163 36.07552184 -38.05180438 33.71354153 -38.05078125 31.3515625 C-38.059991 30.25236481 -38.06920074 29.15316711 -38.07868958 28.0206604 C-38.03606967 20.89683164 -37.53434482 14.75394639 -32.92578125 8.98046875 C-22.82466893 0.55946031 -12.81499766 0.0072442 0 0 Z " fill="#DDC866" transform="translate(191.6875,-0.1875)"/>
</svg>
